<svg width="31" height="31" viewBox="0 0 31 31" fill="none" xmlns="http://www.w3.org/2000/svg">
<path d="M28.1435 22.975C28.1435 22.95 28.131 22.925 28.131 22.9C28.1185 22.8 28.106 22.7 28.0685 22.6125C28.0185 22.5 27.956 22.4125 27.881 22.325C27.881 22.325 27.881 22.3125 27.8685 22.3125C27.781 22.225 27.681 22.1625 27.5685 22.1125C27.456 22.0625 27.331 22.0375 27.206 22.0375L21.3685 22.0625C21.3685 22.0625 21.3685 22.0625 21.356 22.0625C20.606 22.0625 19.881 21.7125 19.431 21.1125L17.906 19.15C17.5935 18.7375 17.006 18.6625 16.5935 18.9875C16.181 19.3125 16.106 19.8875 16.431 20.3L17.956 22.2625C18.7685 23.3125 20.0435 23.9375 21.3685 23.9375H21.381L24.9435 23.925L24.056 24.8125C23.6935 25.175 23.6935 25.775 24.056 26.1375C24.2435 26.325 24.481 26.4125 24.7185 26.4125C24.956 26.4125 25.1935 26.325 25.381 26.1375L27.881 23.6375C27.9685 23.55 28.031 23.45 28.081 23.3375C28.1185 23.2125 28.1435 23.0875 28.1435 22.975Z" fill="white"/>
<path d="M11.4811 8.86251C10.6686 7.73751 9.36856 7.07501 7.98105 7.07501C7.96855 7.07501 7.96855 7.07501 7.95605 7.07501L4.70605 7.08751C4.19355 7.08751 3.76855 7.51251 3.76855 8.02501C3.76855 8.53751 4.19355 8.96251 4.70605 8.96251L7.96855 8.95001H7.98105C8.76855 8.95001 9.50605 9.32501 9.95605 9.96251L11.3061 11.8375C11.4936 12.0875 11.7811 12.225 12.0686 12.225C12.2561 12.225 12.4561 12.1625 12.6186 12.05C13.0436 11.7375 13.1311 11.15 12.8311 10.7375L11.4811 8.86251Z" fill="white"/>
<path d="M28.1311 8.1C28.1311 8.075 28.1436 8.05 28.1436 8.0375C28.1436 7.9125 28.1186 7.7875 28.0686 7.675C28.0186 7.5625 27.9561 7.4625 27.8686 7.375L25.3686 4.875C25.0061 4.5125 24.4061 4.5125 24.0436 4.875C23.6811 5.2375 23.6811 5.8375 24.0436 6.2L24.9311 7.0875L21.5186 7.075C21.5061 7.075 21.5061 7.075 21.4936 7.075C20.0561 7.075 18.7061 7.7875 17.9061 9L9.91856 20.975C9.46856 21.65 8.70606 22.0625 7.89356 22.0625H7.88105L4.70605 22.0375C4.19355 22.0375 3.76855 22.45 3.76855 22.975C3.76855 23.4875 4.18105 23.9125 4.70605 23.9125L7.89356 23.925C7.90606 23.925 7.90605 23.925 7.91856 23.925C9.36856 23.925 10.7061 23.2125 11.5061 22L19.4936 10.025C19.9436 9.35 20.7061 8.9375 21.5186 8.9375H21.5311L27.2061 8.9625C27.3311 8.9625 27.4436 8.9375 27.5686 8.8875C27.6811 8.8375 27.7811 8.775 27.8686 8.6875C27.8686 8.6875 27.8686 8.675 27.8811 8.675C27.9561 8.5875 28.0311 8.5 28.0686 8.3875C28.1061 8.3 28.1186 8.2 28.1311 8.1Z" fill="white"/>
</svg>
