<svg width="31" height="30" viewBox="0 0 31 30" fill="none" xmlns="http://www.w3.org/2000/svg">
<path d="M9.5 15C12.4016 15 14.75 11.6451 14.75 7.5C14.75 3.35491 12.4016 0 9.5 0C6.59844 0 4.25 3.35491 4.25 7.5C4.25 11.6451 6.59844 15 9.5 15ZM13.1 17.1429H12.7109C11.7359 17.8125 10.6531 18.2143 9.5 18.2143C8.34688 18.2143 7.26875 17.8125 6.28906 17.1429H5.9C2.91875 17.1429 0.5 20.5982 0.5 24.8571V26.7857C0.5 28.5603 1.50781 30 2.75 30H16.25C17.4922 30 18.5 28.5603 18.5 26.7857V24.8571C18.5 20.5982 16.0812 17.1429 13.1 17.1429ZM23 15C25.4844 15 27.5 12.1205 27.5 8.57143C27.5 5.02232 25.4844 2.14286 23 2.14286C20.5156 2.14286 18.5 5.02232 18.5 8.57143C18.5 12.1205 20.5156 15 23 15ZM25.25 17.1429H25.0719C24.4203 17.4643 23.7313 17.6786 23 17.6786C22.2687 17.6786 21.5797 17.4643 20.9281 17.1429H20.75C19.7938 17.1429 18.9125 17.5379 18.1391 18.1741C19.2828 19.9353 20 22.2723 20 24.8571V27.4286C20 27.5759 19.9766 27.7165 19.9719 27.8571H28.25C29.4922 27.8571 30.5 26.4174 30.5 24.6429C30.5 20.4978 28.1516 17.1429 25.25 17.1429Z" fill="white"/>
</svg>
