<svg width="31" height="30" viewBox="0 0 31 30" fill="none" xmlns="http://www.w3.org/2000/svg">
<path d="M28.1494 10.6182C26.4606 4.34118 21.3324 0 15.5 0C9.68529 0 4.53765 4.34824 2.85059 10.6182C1.53235 10.7629 0.5 11.8747 0.5 13.2353V20.2941C0.5 21.3971 1.17412 22.3412 2.13059 22.7382C2.47294 25.8212 5.06529 28.2353 8.23824 28.2353H13.0153C13.3806 29.2606 14.3512 30 15.5 30H20.7941C22.2535 30 23.4412 28.8124 23.4412 27.3529C23.4412 25.8935 22.2535 24.7059 20.7941 24.7059H15.5C14.3512 24.7059 13.3806 25.4453 13.0153 26.4706H8.23824C6.10647 26.4706 4.32588 24.9529 3.91647 22.9412H5.79412V21.1765H7.55882V12.3529H5.79412V10.5882H4.72471C6.33588 5.36294 10.64 1.76471 15.5 1.76471C20.3741 1.76471 24.6641 5.35941 26.2753 10.5882H25.2059V12.3529H23.4412V21.1765H25.2059V22.9412H27.8635C29.3176 22.9412 30.5 21.7535 30.5 20.2941V13.2353C30.5 11.8747 29.4676 10.7629 28.1494 10.6182ZM15.5 26.4706H20.7941C21.2794 26.4706 21.6765 26.8659 21.6765 27.3529C21.6765 27.84 21.2794 28.2353 20.7941 28.2353H15.5C15.0147 28.2353 14.6176 27.84 14.6176 27.3529C14.6176 26.8659 15.0147 26.4706 15.5 26.4706ZM4.02941 21.1765H3.13647C2.65647 21.1765 2.26471 20.7812 2.26471 20.2941V13.2353C2.26471 12.7482 2.65647 12.3529 3.13647 12.3529H4.02941V21.1765ZM28.7353 20.2941C28.7353 20.7812 28.3435 21.1765 27.8635 21.1765H26.9706V12.3529H27.8635C28.3435 12.3529 28.7353 12.7482 28.7353 13.2353V20.2941Z" fill="white"/>
</svg>
