<svg width="31" height="30" viewBox="0 0 31 30" fill="none" xmlns="http://www.w3.org/2000/svg">
<path d="M14.7439 2.62879C14.9446 2.41413 15.2167 2.29356 15.5003 2.29356C15.784 2.29356 16.0561 2.41413 16.2568 2.62879L28.6599 15.9101C28.7587 16.0196 28.8769 16.1068 29.0075 16.1668C29.1381 16.2269 29.2786 16.2584 29.4207 16.2597C29.5629 16.2609 29.7038 16.2318 29.8354 16.1741C29.9669 16.1164 30.0864 16.0313 30.1868 15.9236C30.2873 15.8159 30.3667 15.6879 30.4205 15.547C30.4742 15.4061 30.5013 15.2551 30.5 15.1029C30.4987 14.9507 30.4691 14.8003 30.4129 14.6605C30.3567 14.5207 30.2751 14.3943 30.1728 14.2886L17.7712 1.00721C17.473 0.687887 17.1189 0.434584 16.7293 0.261766C16.3397 0.0889482 15.9221 0 15.5003 0C15.0786 0 14.661 0.0889482 14.2714 0.261766C13.8818 0.434584 13.5277 0.687887 13.2295 1.00721L0.826432 14.2886C0.724239 14.3944 0.642746 14.5209 0.586706 14.6608C0.530667 14.8006 0.501204 14.9511 0.500036 15.1033C0.498868 15.2555 0.52602 15.4064 0.579906 15.5472C0.633791 15.6881 0.713333 15.816 0.813889 15.9236C0.914444 16.0312 1.034 16.1162 1.16558 16.1738C1.29716 16.2314 1.43813 16.2603 1.58027 16.2589C1.7224 16.2575 1.86285 16.2258 1.99343 16.1657C2.124 16.1055 2.24208 16.0181 2.34078 15.9086L14.7439 2.62879Z" fill="white"/>
<path d="M15.5003 5.0604L27.1456 17.5302C27.1884 17.576 27.2312 17.6188 27.2755 17.6616V27.1343C27.2755 28.7162 26.0765 30 24.5993 30H19.7822C19.4983 30 19.226 29.8792 19.0253 29.6643C18.8245 29.4493 18.7117 29.1577 18.7117 28.8537V21.9762C18.7117 21.6722 18.599 21.3806 18.3982 21.1656C18.1975 20.9507 17.9252 20.8299 17.6413 20.8299H13.3594C13.0755 20.8299 12.8032 20.9507 12.6025 21.1656C12.4017 21.3806 12.289 21.6722 12.289 21.9762V28.8537C12.289 29.1577 12.1762 29.4493 11.9754 29.6643C11.7747 29.8792 11.5024 30 11.2185 30H6.40141C5.69165 30 5.01095 29.6981 4.50908 29.1607C4.0072 28.6233 3.72525 27.8944 3.72525 27.1343V17.6616C3.76965 17.6191 3.81296 17.5753 3.85513 17.5302L15.5003 5.0604Z" fill="white"/>
</svg>
