<svg width="31" height="30" viewBox="0 0 31 30" fill="none" xmlns="http://www.w3.org/2000/svg">
<path d="M25.0089 3.3375C22.3067 1.17543 18.9487 -0.001708 15.488 1.86011e-06C11.4085 1.86011e-06 7.59827 1.57165 4.74961 4.42567C1.99672 7.18728 0.488018 10.8335 0.500072 14.69C0.500165 17.5174 1.33024 20.2826 2.88734 22.6426L2.90007 22.6607C2.91882 22.6882 2.93824 22.7156 2.95765 22.7424C2.97707 22.7692 3.00118 22.804 3.00654 22.8127L3.02127 22.8395C3.09694 22.9734 3.1552 23.1368 3.10364 23.3016L1.87016 27.7654C1.82081 27.9314 1.79379 28.1032 1.7898 28.2763C1.78891 28.7318 1.96866 29.169 2.28964 29.4921C2.61062 29.8152 3.04663 29.9979 3.50207 30C3.74274 29.9921 3.97991 29.9401 4.20185 29.8467L8.72126 28.2154L8.77818 28.1933C8.90111 28.1417 9.03323 28.1155 9.16657 28.1163C9.28951 28.1166 9.41136 28.1393 9.52617 28.1833C9.63465 28.2254 10.6197 28.6025 11.659 28.8931C12.5228 29.1342 14.3201 29.4958 15.7284 29.4958C19.7228 29.4958 23.4527 27.9489 26.2304 25.1391C28.9839 22.3507 30.5 18.6442 30.5 14.698C30.5004 13.685 30.3931 12.6749 30.1799 11.6846C29.4875 8.4288 27.6513 5.46362 25.0089 3.3375ZM9.07148 17.1429C8.64766 17.1429 8.23336 17.0172 7.88097 16.7817C7.52858 16.5463 7.25393 16.2116 7.09174 15.82C6.92955 15.4285 6.88712 14.9976 6.9698 14.582C7.05248 14.1663 7.25657 13.7845 7.55625 13.4848C7.85594 13.1851 8.23776 12.981 8.65343 12.8983C9.0691 12.8156 9.49996 12.8581 9.89151 13.0203C10.2831 13.1824 10.6177 13.4571 10.8532 13.8095C11.0887 14.1619 11.2143 14.5762 11.2143 15C11.2143 15.5683 10.9886 16.1134 10.5867 16.5152C10.1848 16.9171 9.6398 17.1429 9.07148 17.1429ZM15.5 17.1429C15.0762 17.1429 14.6619 17.0172 14.3095 16.7817C13.9571 16.5463 13.6825 16.2116 13.5203 15.82C13.3581 15.4285 13.3157 14.9976 13.3984 14.582C13.481 14.1663 13.6851 13.7845 13.9848 13.4848C14.2845 13.1851 14.6663 12.981 15.082 12.8983C15.4977 12.8156 15.9285 12.8581 16.3201 13.0203C16.7116 13.1824 17.0463 13.4571 17.2817 13.8095C17.5172 14.1619 17.6429 14.5762 17.6429 15C17.6429 15.5683 17.4171 16.1134 17.0153 16.5152C16.6134 16.9171 16.0684 17.1429 15.5 17.1429ZM21.9286 17.1429C21.5048 17.1429 21.0905 17.0172 20.7381 16.7817C20.3857 16.5463 20.111 16.2116 19.9489 15.82C19.7867 15.4285 19.7442 14.9976 19.8269 14.582C19.9096 14.1663 20.1137 13.7845 20.4134 13.4848C20.713 13.1851 21.0949 12.981 21.5105 12.8983C21.9262 12.8156 22.3571 12.8581 22.7486 13.0203C23.1402 13.1824 23.4748 13.4571 23.7103 13.8095C23.9458 14.1619 24.0714 14.5762 24.0714 15C24.0714 15.5683 23.8457 16.1134 23.4438 16.5152C23.042 16.9171 22.4969 17.1429 21.9286 17.1429Z" fill="white"/>
</svg>
