<svg width="31" height="30" viewBox="0 0 31 30" fill="none" xmlns="http://www.w3.org/2000/svg">
<path d="M26.9688 16.4688C27.0331 16 27.0652 15.5156 27.0652 15C27.0652 14.5 27.0331 14 26.9528 13.5313L30.2135 11.0625C30.354 10.9498 30.45 10.7933 30.4852 10.6195C30.5203 10.4457 30.4925 10.2654 30.4063 10.1094L27.3222 4.92188C27.2314 4.76495 27.0865 4.64434 26.913 4.58142C26.7395 4.51851 26.5488 4.51734 26.3745 4.57813L22.5355 6.07813C21.7324 5.48438 20.881 4.98438 19.9333 4.60938L19.3551 0.640629C19.3266 0.46177 19.2332 0.298766 19.0917 0.181217C18.9502 0.0636688 18.7701 -0.000627351 18.5841 4.61468e-06H12.4159C12.0304 4.61468e-06 11.7252 0.265629 11.661 0.640629L11.0827 4.60938C10.135 4.98438 9.26763 5.5 8.48055 6.07813L4.64154 4.57813C4.28816 4.45313 3.88659 4.57813 3.69384 4.92188L0.625841 10.1094C0.433087 10.4375 0.497338 10.8438 0.818594 11.0625L4.07934 13.5313C3.99903 14 3.93478 14.5156 3.93478 15C3.93478 15.4844 3.9669 16 4.04722 16.4688L0.786469 18.9375C0.645958 19.0502 0.54995 19.2067 0.514803 19.3805C0.479655 19.5543 0.507544 19.7346 0.593715 19.8906L3.67777 25.0781C3.87053 25.4219 4.2721 25.5312 4.62548 25.4219L8.46449 23.9219C9.26763 24.5156 10.119 25.0156 11.0667 25.3906L11.6449 29.3594C11.7252 29.7344 12.0304 30 12.4159 30H18.5841C18.9696 30 19.2908 29.7344 19.339 29.3594L19.9173 25.3906C20.865 25.0156 21.7324 24.5156 22.5194 23.9219L26.3585 25.4219C26.7118 25.5469 27.1134 25.4219 27.3062 25.0781L30.3902 19.8906C30.583 19.5469 30.5027 19.1563 30.1975 18.9375L26.9688 16.4688ZM15.5 20.625C12.3196 20.625 9.71739 18.0938 9.71739 15C9.71739 11.9063 12.3196 9.375 15.5 9.375C18.6804 9.375 21.2826 11.9063 21.2826 15C21.2826 18.0938 18.6804 20.625 15.5 20.625Z" fill="white"/>
</svg>
