<svg width="31" height="30" viewBox="0 0 31 30" fill="none" xmlns="http://www.w3.org/2000/svg">
<path d="M2.16667 30H28.8333C29.2754 30 29.6993 29.8244 30.0118 29.5118C30.3244 29.1993 30.5 28.7754 30.5 28.3333V1.66667C30.5 1.22464 30.3244 0.800716 30.0118 0.488155C29.6993 0.175595 29.2754 0 28.8333 0H2.16667C1.72464 0 1.30072 0.175595 0.988155 0.488155C0.675595 0.800716 0.5 1.22464 0.5 1.66667V28.3333C0.5 28.7754 0.675595 29.1993 0.988155 29.5118C1.30072 29.8244 1.72464 30 2.16667 30ZM8.52 9.845C8.94568 9.4141 9.45267 9.07199 10.0116 8.83849C10.5704 8.605 11.1701 8.48476 11.7758 8.48476C12.3815 8.48476 12.9812 8.605 13.5401 8.83849C14.099 9.07199 14.606 9.4141 15.0317 9.845L15.4967 10.31L15.96 9.845C16.3857 9.4141 16.8927 9.07199 17.4516 8.83849C18.0104 8.605 18.6101 8.48476 19.2158 8.48476C19.8215 8.48476 20.4212 8.605 20.9801 8.83849C21.539 9.07199 22.046 9.4141 22.4717 9.845C22.9028 10.2706 23.2451 10.7775 23.4787 11.3364C23.7123 11.8953 23.8326 12.4951 23.8326 13.1008C23.8326 13.7066 23.7123 14.3063 23.4787 14.8652C23.2451 15.4242 22.9028 15.9311 22.4717 16.3567L15.4967 23.3333L8.51833 16.3567C8.08775 15.9308 7.74594 15.4237 7.51272 14.8647C7.27949 14.3058 7.15948 13.7061 7.15963 13.1005C7.15979 12.4948 7.28011 11.8952 7.51362 11.3364C7.74713 10.7776 8.08919 10.2707 8.52 9.845Z" fill="white"/>
</svg>
