<svg width="77" height="63" viewBox="0 0 77 63" fill="none" xmlns="http://www.w3.org/2000/svg">
<g clip-path="url(#clip0_9_18)">
<path d="M38.4815 0.191772C60.3369 0.191772 76.767 14.0911 76.767 31.5C76.767 50.0703 58.5028 62.8083 38.4815 62.8083C17.8282 62.8083 0.319214 48.9847 0.319214 31.5C0.319214 14.7223 16.4565 0.191772 38.4815 0.191772ZM38.6048 5.83483C20.3868 5.83483 7.20876 18.194 7.20876 31.5C7.20876 45.3615 21.2653 57.1021 38.6048 57.1021C54.5108 57.1021 69.8621 46.8638 69.8621 31.5C69.8775 17.1336 55.9596 5.83483 38.6048 5.83483ZM39.1596 12.551C39.5912 12.5131 40.9321 12.6772 40.9321 14.0027L41.9494 27.536L42.7046 20.0498C42.7046 19.2923 43.429 18.7116 44.3384 18.7116C45.2477 18.7116 45.9721 19.3049 45.9721 20.0498C45.9721 20.3654 45.8951 19.3302 46.8506 30.3386L47.7446 22.2338C47.7908 21.8677 48.1916 21.0597 49.3167 21.0597C49.9024 21.0597 50.8426 21.3501 50.9505 22.1833L52.7229 34.3657L53.5398 32.7498C53.8173 32.1943 54.3413 31.9166 55.1119 31.9166H64.0514V34.6056H56.2063L53.4011 40.1981C52.8 41.4479 50.3956 41.347 50.1952 39.8068L49.5787 35.7796L48.4228 47.4697C48.3765 47.8485 47.9604 48.6438 46.8506 48.6438C46.3883 48.6438 45.3402 48.3787 45.2169 47.4697C45.2169 47.2299 45.3094 48.2019 44.2613 37.6354L43.4444 46.7502C43.2749 47.3561 42.7046 47.9242 41.8106 47.9242C41.3637 47.9242 40.3002 47.6717 40.1769 46.7502C40.1769 46.5103 40.2539 47.596 39.2829 35.6786L38.389 47.6465C38.389 48.4418 37.8341 49.2119 36.7552 49.2119C35.9538 49.2119 35.1215 48.6943 35.1215 47.697L34.2275 36.6255C33.3336 48.3029 33.4106 47.2299 33.4106 47.4697C33.2411 48.0757 32.6708 48.6438 31.7769 48.6438C31.3145 48.6438 30.2664 48.3787 30.1431 47.4697C30.1431 47.3814 30.0815 47.3309 30.0815 47.1415L29.1259 35.9564L28.3706 43.1144C28.2627 43.9349 27.338 44.2884 26.7369 44.2884C25.8429 44.2884 25.2572 43.7708 25.1031 43.1649L23.3923 33.5199C23.084 34.0249 22.8528 34.5803 21.6814 34.5803H13.7592V31.8914H20.6642L22.7758 28.3692C23.4539 27.1194 25.5809 27.4602 25.8429 28.71L26.3207 31.2854L27.6154 18.9262C27.6154 18.1688 28.3552 17.588 29.2492 17.588C29.3262 17.588 30.8829 17.5628 30.8829 19.1535L31.6381 27.8768L32.6554 16.1867C32.6554 14.9117 34.1196 14.8486 34.2275 14.8486C34.32 14.8486 35.8613 14.9369 35.8613 16.1867L36.6782 26.3619L37.6338 14.0027C37.6492 13.8639 37.5413 12.7024 39.1596 12.551Z" fill="white"/>
</g>
<defs>
<clipPath id="clip0_9_18">
<rect width="77" height="63" fill="white"/>
</clipPath>
</defs>
</svg>
