<svg width="31" height="30" viewBox="0 0 31 30" fill="none" xmlns="http://www.w3.org/2000/svg">
<path d="M15.5 30C19.4782 30 23.2936 28.4196 26.1066 25.6066C28.9196 22.7936 30.5 18.9782 30.5 15C30.5 11.0218 28.9196 7.20644 26.1066 4.3934C23.2936 1.58035 19.4782 0 15.5 0C11.5218 0 7.70644 1.58035 4.8934 4.3934C2.08035 7.20644 0.5 11.0218 0.5 15C0.5 18.9782 2.08035 22.7936 4.8934 25.6066C7.70644 28.4196 11.5218 30 15.5 30ZM14.0938 20.1562V16.4062H10.3438C9.56445 16.4062 8.9375 15.7793 8.9375 15C8.9375 14.2207 9.56445 13.5938 10.3438 13.5938H14.0938V9.84375C14.0938 9.06445 14.7207 8.4375 15.5 8.4375C16.2793 8.4375 16.9062 9.06445 16.9062 9.84375V13.5938H20.6562C21.4355 13.5938 22.0625 14.2207 22.0625 15C22.0625 15.7793 21.4355 16.4062 20.6562 16.4062H16.9062V20.1562C16.9062 20.9355 16.2793 21.5625 15.5 21.5625C14.7207 21.5625 14.0938 20.9355 14.0938 20.1562Z" fill="white"/>
</svg>
