<svg width="31" height="30" viewBox="0 0 31 30" fill="none" xmlns="http://www.w3.org/2000/svg">
<path d="M0.5 4.49958V25.4996C0.5 25.8974 0.710714 26.2789 1.08579 26.5602C1.46086 26.8415 1.96957 26.9996 2.5 26.9996H8.5V23.9996H4.5V5.99958H8.5V2.99958H2.5C1.96957 2.99958 1.46086 3.15762 1.08579 3.43892C0.710714 3.72023 0.5 4.10176 0.5 4.49958ZM28.984 3.04458L12.984 0.0445857C12.6892 -0.0105531 12.3816 -0.0146049 12.0844 0.0327382C11.7873 0.0800812 11.5084 0.177575 11.269 0.317819C11.0295 0.458063 10.8358 0.637372 10.7026 0.842137C10.5694 1.0469 10.5001 1.27174 10.5 1.49958V28.4996C10.4993 28.7276 10.5681 28.9528 10.7011 29.1578C10.8341 29.3629 11.0278 29.5425 11.2674 29.6828C11.507 29.8232 11.7863 29.9206 12.0838 29.9677C12.3813 30.0148 12.6892 30.0103 12.984 29.9546L28.984 26.9546C29.4169 26.8736 29.8012 26.6864 30.0759 26.4228C30.3506 26.1591 30.4999 25.8342 30.5 25.4996V4.49958C30.4999 4.16499 30.3506 3.84003 30.0759 3.57639C29.8012 3.31275 29.4169 3.12556 28.984 3.04458ZM20.5 15.2816C20.477 15.6678 20.2562 16.0325 19.8836 16.2997C19.5111 16.5669 19.0155 16.716 18.5 16.716C17.9845 16.716 17.4889 16.5669 17.1164 16.2997C16.7438 16.0325 16.523 15.6678 16.5 15.2816V14.7161C16.5003 14.3183 16.7112 13.9368 17.0865 13.6556C17.4618 13.3745 17.9706 13.2166 18.501 13.2168C19.0314 13.217 19.54 13.3753 19.9149 13.6567C20.2898 13.9381 20.5003 14.3198 20.5 14.7176V15.2816Z" fill="white"/>
</svg>
