<svg width="54" height="45" viewBox="0 0 54 45" fill="none" xmlns="http://www.w3.org/2000/svg">
<g clip-path="url(#clip0_10_22)">
<path d="M27 0.72998C12.5256 0.72998 0.75 10.6174 0.75 22.7708C0.75 34.9242 12.5256 44.8116 27 44.8116C41.4744 44.8116 53.25 34.9242 53.25 22.7708C53.25 10.6174 41.4744 0.72998 27 0.72998ZM39.4838 33.2528C39.0736 33.597 38.5174 33.7904 37.9375 33.7904C37.3576 33.7904 36.8014 33.597 36.3912 33.2528L30.5342 28.3361C28.0598 29.7658 25.0384 30.3674 22.0629 30.0229C19.0874 29.6784 16.3727 28.4127 14.4514 26.4742C12.5301 24.5356 11.541 22.0642 11.6781 19.5448C11.8152 17.0254 13.0687 14.6401 15.1926 12.8567C17.3165 11.0734 20.1574 10.0209 23.1579 9.90577C26.1584 9.79063 29.1019 10.6212 31.4106 12.2344C33.7194 13.8476 35.2268 16.127 35.6371 18.6254C36.0473 21.1237 35.3308 23.6606 33.6281 25.7383L39.4838 30.6561C39.8937 31.0005 40.124 31.4675 40.124 31.9545C40.124 32.4414 39.8937 32.9084 39.4838 33.2528Z" fill="white"/>
<path d="M23.7188 26.4443C27.9472 26.4443 31.375 23.5661 31.375 20.0157C31.375 16.4653 27.9472 13.5871 23.7188 13.5871C19.4903 13.5871 16.0625 16.4653 16.0625 20.0157C16.0625 23.5661 19.4903 26.4443 23.7188 26.4443Z" fill="white"/>
</g>
<defs>
<clipPath id="clip0_10_22">
<rect width="54" height="45" fill="white"/>
</clipPath>
</defs>
</svg>
