<svg width="23" height="21" viewBox="0 0 23 21" fill="none" xmlns="http://www.w3.org/2000/svg">
<path d="M18.1095 16.3066C17.9457 16.3066 17.7921 16.2455 17.6487 16.1233C17.3108 15.8177 17.2391 15.2432 17.4951 14.8399C19.1029 12.2854 19.1029 8.71645 17.4951 6.16197C17.2391 5.75863 17.3108 5.18417 17.6487 4.87861C17.9867 4.57305 18.468 4.65861 18.724 5.06195C20.7312 8.26422 20.7312 12.7376 18.724 15.9399C18.5704 16.1844 18.3451 16.3066 18.1095 16.3066Z" fill="white"/>
<path d="M19.9836 19.3622C19.8198 19.3622 19.6662 19.3011 19.5228 19.1789C19.1848 18.8733 19.1132 18.2988 19.3692 17.8955C22.1035 13.5443 22.1035 7.45754 19.3692 3.10636C19.1132 2.70302 19.1848 2.12856 19.5228 1.823C19.8607 1.51744 20.3421 1.603 20.5981 2.00634C23.742 7.00531 23.742 13.9965 20.5981 18.9955C20.4547 19.24 20.2192 19.3622 19.9836 19.3622Z" fill="white"/>
<path d="M14.0337 0.454089C12.8867 -0.303702 11.4222 -0.108143 9.92708 1.0041L6.93674 3.2408C6.73192 3.38747 6.49638 3.47303 6.26084 3.47303H4.79639C2.31809 3.47303 0.956055 5.09861 0.956055 8.05644V12.9454C0.956055 15.9032 2.31809 17.5288 4.79639 17.5288H6.26084C6.49638 17.5288 6.73192 17.6144 6.93674 17.7611L9.92708 19.9978C10.8283 20.67 11.709 21 12.5283 21C13.0608 21 13.5728 20.8533 14.0337 20.5478C15.1704 19.79 15.8053 18.2133 15.8053 16.111V4.89083C15.8053 2.78857 15.1704 1.21188 14.0337 0.454089Z" fill="white"/>
</svg>
